# xmcd
#
# Track frame offsets: 
#        150
#        13755
#        28640
#        39713
#        54743
#        68018
#        83888
#        97170
#        114550
#        131603
#        143505
#        157178
#        167023
#        179695
#        201728
#        215140
#
# Disc length: 3049 seconds
#
# Revision: 3
# Processed by: cddbd v1.5.1PL0 Copyright (c) Steve Scherf et al.
# Submitted via: ExactAudioCopy v0.95a5
#
DISCID=f50be710
DTITLE=Webb Wilder - It Came From Nashville
DYEAR=1986
DGENRE=Rock
TTITLE0=How Long Can She Last (Going That Fast)
TTITLE1=Horror Hayride
TTITLE2=I'm Burning
TTITLE3=Is This All There Is?
TTITLE4=Devil's Right Hand
TTITLE5=Move On Down The Line
TTITLE6=One Taste Of The Bait
TTITLE7=I'm Wise To You
TTITLE8=It Gets In Your Blood
TTITLE9=Poolside
TTITLE10=Ruff Rider
TTITLE11=Keep It On Your Mind
TTITLE12=Rock 'n Roll Ruby
TTITLE13=Samson And Delilah's Beauty Shop
TTITLE14=Cactus Planet
TTITLE15=Dance For Daddy
EXTD=1993","Watermelon Records","R.S. Field","Beatnecks
EXTT0=
EXTT1=
EXTT2=
EXTT3=
EXTT4=
EXTT5=
EXTT6=
EXTT7=
EXTT8=
EXTT9=
EXTT10=
EXTT11=
EXTT12=
EXTT13=
EXTT14=
EXTT15=
PLAYORDER=
